HIERARCHY
ROOT hip
{
	OFFSET 0.000000 0.000000 0.000000 
	CHANNELS 6 Xposition Yposition Zposition Xrotation Zrotation Yrotation
	JOINT abdomen
	{
		OFFSET 0.000000 3.402643 0.000000 
		CHANNELS 3 Xrotation Zrotation Yrotation
		JOINT chest
		{
			OFFSET 0.000000 8.438565 -0.680529 
			CHANNELS 3 Xrotation Zrotation Yrotation
			JOINT neck
			{
				OFFSET 0.000000 10.207942 -0.272212 
				CHANNELS 3 Xrotation Zrotation Yrotation
				JOINT head
				{
					OFFSET 0.000000 3.130431 0.000000 
					CHANNELS 3 Xrotation Zrotation Yrotation
					End Site
					{
						OFFSET 0.000000 3.130435 0.000000 
					}
				}
			}
			JOINT lCollar
			{
				OFFSET 3.470700 6.669187 -0.816635 
				CHANNELS 3 Yrotation Zrotation Xrotation
				JOINT lShldr
				{
					OFFSET 3.198488 0.000000 0.000000 
					CHANNELS 3 Zrotation Yrotation Xrotation
					JOINT lForeArm
					{
						OFFSET 10.139888 0.000000 0.000000 
						CHANNELS 3 Yrotation Zrotation Xrotation
						JOINT lHand
						{
							OFFSET 8.370511 0.000000 0.000000 
							CHANNELS 3 Zrotation Yrotation Xrotation
							End Site
							{
								OFFSET 4.083176 0.000000 0.000000 
							}
						}
					}
				}
			}
			JOINT rCollar
			{
				OFFSET -3.470700 6.669187 -0.816635 
				CHANNELS 3 Yrotation Zrotation Xrotation
				JOINT rShldr
				{
					OFFSET -3.198488 0.000000 0.000000 
					CHANNELS 3 Zrotation Yrotation Xrotation
					JOINT rForeArm
					{
						OFFSET -10.139888 0.000000 0.000000 
						CHANNELS 3 Yrotation Zrotation Xrotation
						JOINT rHand
						{
							OFFSET -8.370511 0.000000 0.000000 
							CHANNELS 3 Zrotation Yrotation Xrotation
							End Site
							{
								OFFSET -4.083176 0.000000 0.000000 
							}
						}
					}
				}
			}
		}
	}
	JOINT lThigh
	{
		OFFSET 5.308129 -1.633274 1.361059 
		CHANNELS 3 Xrotation Zrotation Yrotation
		JOINT lShin
		{
			OFFSET -2.041588 -20.007561 0.000000 
			CHANNELS 3 Xrotation Zrotation Yrotation
			JOINT lFoot
			{
				OFFSET 0.000000 -19.190928 -1.224953 
				CHANNELS 3 Xrotation Yrotation Zrotation
				End Site
				{
					OFFSET 0.000000 -2.449906 4.627600 
				}
			}
		}
	}
	JOINT rThigh
	{
		OFFSET -5.308129 -1.633274 1.361059 
		CHANNELS 3 Xrotation Zrotation Yrotation
		JOINT rShin
		{
			OFFSET 2.041588 -20.007561 0.000000 
			CHANNELS 3 Xrotation Zrotation Yrotation
			JOINT rFoot
			{
				OFFSET 0.000000 -19.190928 -1.224953 
				CHANNELS 3 Xrotation Yrotation Zrotation
				End Site
				{
					OFFSET 0.000000 -2.449906 4.627600 
				}
			}
		}
	}
}
MOTION
Frames: 18
Frame Time: 0.033333
-0.218761 51.844688 0.672792 12.460938 9.257813 -54.033203 59.810696 -10.535462 -18.627697 -17.626955 9.023438 1.992187 51.063168 8.107644 2.471410 -71.093750 -18.310545 43.320320 2.000000 -2.000000 0.000000 -78.925781 -31.220705 -38.344906 -46.186954 -1.931814 -1.810150 -24.946060 40.061695 -54.894379 -2.000000 2.000000 0.000000 57.255856 -13.466797 20.507813 114.124496 -1.239582 -2.953179 -32.587246 -71.733788 12.676804 -35.496380 32.094639 28.501945 20.334240 -4.922966 -2.172760 2.211054 10.162490 -0.633072 -22.076784 2.832326 -20.848991 14.017273 5.098252 0.658780 -2.473944 -7.126361 -4.703295 
-0.348767 51.694992 1.400169 12.636720 9.248047 -54.539448 60.263680 -10.931382 -18.828718 -17.626955 9.023438 2.343750 51.063168 8.107644 2.471410 -72.646484 -16.816404 43.593754 2.000000 -2.000000 0.000000 -76.132813 -32.675777 -41.376953 -45.834946 -1.891679 -1.792940 -25.210396 40.782242 -54.440220 -2.000000 2.000000 0.000000 58.251953 -10.585938 19.423828 113.245361 -1.201150 -2.941179 -28.770157 -71.512611 9.150030 -32.342785 31.519756 29.091875 8.360843 -5.223858 -1.141279 7.600004 9.379512 -1.035628 -21.770445 2.491730 -20.985439 14.544036 5.029495 1.191779 -4.159769 -7.819771 -6.291062 
-0.341462 51.624092 2.569460 13.007813 9.423829 -55.115582 60.666504 -11.317972 -18.710360 -17.451172 9.023438 2.890625 51.063168 8.107644 2.471410 -74.384766 -15.302733 43.815784 2.000000 -2.000000 0.000000 -73.105469 -33.818359 -44.458565 -45.296165 -1.799949 -1.729854 -25.268675 41.311523 -54.105030 -2.000000 2.000000 0.000000 59.218750 -7.490235 18.660839 112.542267 -1.181651 -2.940051 -26.367569 -71.593773 6.945130 -29.403820 31.023361 29.047216 -3.753616 -5.165986 0.131812 12.011271 9.199527 -1.498843 -21.641911 1.525897 -20.177774 15.253732 4.980219 1.477956 -5.398191 -8.062396 -6.435023 
-0.158491 51.561069 4.174797 13.193360 9.570313 -55.749580 61.113064 -11.787174 -18.765137 -17.451172 9.023438 3.066406 51.063168 8.107644 2.471410 -76.152344 -13.955078 44.208984 2.000000 -2.000000 0.000000 -70.019531 -34.687500 -47.646484 -44.592499 -1.808558 -1.709793 -25.765116 42.537067 -53.369526 -2.000000 2.000000 0.000000 59.775391 -4.306641 17.430908 111.839165 -1.162153 -2.938923 -25.093529 -71.320671 6.152314 -27.488441 30.645748 29.184288 -11.177908 -5.036758 0.727547 14.869851 8.748513 -1.775597 -21.558718 0.069187 -19.578478 16.314707 4.982224 1.371434 -6.096103 -7.551387 -6.083749 
0.019196 51.490162 5.959659 13.544923 9.570313 -56.394859 61.326897 -12.017457 -18.619589 -17.451172 9.023438 3.417969 51.063168 8.107644 2.471410 -77.568359 -12.851561 44.355469 2.000000 -2.000000 0.000000 -67.529297 -35.498047 -50.240044 -44.074738 -1.906047 -1.704091 -25.969065 43.598270 -52.492283 -2.000000 2.000000 0.000000 60.234371 -0.634766 15.869141 111.135513 -1.143783 -2.918305 -27.113401 -72.627762 8.808068 -26.845936 30.576677 28.880358 -15.422501 -5.014294 1.088032 14.055611 8.354281 -1.427567 -20.872047 -1.403333 -18.881168 16.665224 4.949570 1.581250 -6.305481 -6.511970 -5.277845 
0.177800 51.442905 7.863292 13.730469 9.726563 -57.019833 61.538681 -12.326648 -18.372908 -17.451172 9.199220 3.623047 51.063168 8.107644 2.471410 -78.876953 -12.109374 44.226467 2.000000 -2.000000 0.000000 -65.527336 -36.484379 -52.232368 -43.888783 -1.846413 -1.688021 -26.408621 44.695621 -52.099247 -2.000000 2.000000 0.000000 60.283203 3.076172 14.150391 110.437340 -1.114131 -3.092596 -31.871592 -73.596733 14.703385 -35.193581 33.403690 24.786526 2.219965 -5.287508 -0.569648 7.652874 8.667695 -1.389827 -19.791023 -3.016063 -18.288570 15.775002 4.990964 1.483836 -6.123561 -5.808179 -4.612764 
0.416634 51.371986 9.818650 14.091797 9.892579 -57.449493 61.702530 -12.658680 -17.779547 -17.431643 9.365234 3.847657 51.063168 8.107644 2.471410 -79.882813 -11.591796 43.943356 2.000000 -2.000000 0.000000 -63.779297 -37.509766 -53.843838 -43.898937 -1.915796 -1.703520 -26.488991 45.069332 -52.113754 -2.000000 2.000000 0.000000 60.009762 5.595703 12.246095 109.909729 -1.104945 -3.082287 -35.978992 -74.358612 19.726065 -38.834648 33.782455 22.857607 10.126223 -5.173437 -1.314192 5.393382 9.375310 -1.246075 -18.759178 -4.619250 -18.115253 14.905763 5.008871 1.423821 -5.177122 -4.826955 -4.061173 
0.632845 51.285343 11.744281 14.257813 10.039063 -58.084236 61.869514 -12.889389 -17.349669 -17.597656 9.541017 4.042969 51.063168 8.107644 2.471410 -80.615234 -11.611327 43.464836 2.000000 -2.000000 0.000000 -62.001949 -38.291016 -55.465038 -44.251591 -2.025885 -1.745975 -26.080872 46.044800 -51.571659 -2.000000 2.000000 0.000000 59.589844 7.236329 10.693358 109.733940 -1.114695 -3.082851 -35.923790 -74.583580 19.544870 -40.291473 33.473713 21.913092 15.080435 -5.061301 -1.570853 4.592000 9.761092 -1.147486 -17.459398 -6.278173 -17.458963 12.782250 5.097561 0.584554 -3.056370 -4.341496 -3.605125 
0.654765 51.253822 13.679308 14.648438 10.205079 -58.679909 62.030540 -13.231774 -16.758465 -17.587891 9.707031 4.257813 51.063168 8.107644 2.471410 -81.025391 -11.826171 42.822266 2.000000 -2.000000 0.000000 -60.537106 -39.375004 -56.373383 -44.779724 -2.027595 -1.775211 -26.149229 46.750469 -51.756744 -2.000000 2.000000 0.000000 59.013676 7.910156 9.532596 109.733665 -1.115258 -3.073106 -33.434410 -74.059715 16.642883 -40.876587 32.407986 22.094652 18.417974 -5.029083 -1.835121 4.273626 10.296761 -0.959792 -14.117053 -7.115179 -18.212767 7.134513 5.174295 0.568304 0.368346 -3.616283 -5.330729 
0.418712 51.048988 15.565735 14.814451 10.371094 -59.316402 62.195881 -13.466628 -16.320097 -17.578125 10.058595 4.501953 51.063168 8.107644 2.471410 -80.947273 -12.314452 42.001949 2.000000 -2.000000 0.000000 -59.755856 -40.517578 -56.002438 -45.482445 -1.830906 -1.757380 -26.267281 46.929787 -53.036564 -2.000000 2.000000 0.000000 58.593746 7.441407 8.281248 109.733665 -1.115258 -3.073106 -30.674604 -73.691193 13.844215 -40.523727 31.448732 22.497559 20.162285 -4.913248 -1.952404 3.992940 11.091706 -0.466470 -9.136712 -7.376252 -19.324404 -2.547124 5.053529 -0.104640 5.685444 -2.934484 -7.065192 
0.280142 50.599945 17.218643 15.019531 10.517579 -59.754074 62.143288 -13.568236 -15.819903 -17.753906 10.068360 4.648438 51.063168 8.107644 2.471410 -80.703125 -12.851561 41.335716 2.000000 -2.000000 0.000000 -59.755856 -40.166012 -54.254341 -46.534500 -1.972009 -1.661117 -27.032471 46.336231 -55.373085 -2.000000 2.000000 0.000000 58.056641 5.976563 7.208049 109.905640 -0.937690 -3.268015 -27.179844 -72.963791 10.960339 -39.833893 30.136547 23.487921 21.930769 -4.853415 -2.088693 1.282934 11.196132 -0.504002 -4.492157 -7.274377 -20.472212 -10.809707 5.175387 -0.770995 10.921080 -2.576714 -9.738667 
0.375329 49.914551 19.022562 15.185548 10.517579 -60.261887 62.144447 -13.750976 -15.523611 -17.744143 10.234375 4.677735 51.063168 8.107644 2.471410 -80.244141 -13.271482 40.869144 2.000000 -2.000000 0.000000 -60.527348 -38.964844 -49.404297 -48.298977 -1.927760 -1.908174 -27.500944 44.541847 -59.758213 -2.000000 2.000000 0.000000 58.164059 3.232422 6.972657 110.085503 -1.114695 -3.082851 -23.128328 -72.001122 7.935261 -38.590096 28.987261 24.746607 22.990318 -4.903370 -2.186069 -1.063189 11.444381 -0.473807 -2.285667 -7.984068 -22.012428 -14.820843 5.112702 -1.110695 13.923653 -2.222596 -12.702829 
0.400480 50.292686 20.770012 15.361328 10.673829 -60.888672 61.925438 -13.709310 -15.354960 -17.753906 10.068360 4.648438 51.063168 8.107644 2.471410 -79.609375 -13.730468 40.515263 2.000000 -2.000000 0.000000 -61.708984 -36.757813 -42.388660 -50.753220 -1.846277 -2.020820 -28.291712 41.379318 -66.152794 -2.000000 2.000000 0.000000 58.183594 0.058594 6.816419 110.613113 -1.123880 -3.093160 -20.785139 -71.147804 6.511468 -37.115971 27.552332 26.065819 23.166779 -4.815710 -2.203911 -2.682055 11.779377 -0.153593 -6.638704 -7.415456 -23.683065 -8.161164 5.203287 -0.541589 11.556701 -6.322414 -12.721655 
0.313739 50.749626 22.434145 15.380860 10.839844 -61.179802 61.542599 -13.500497 -15.465401 -17.753906 9.892580 4.609375 51.063168 8.107644 2.471410 -78.730469 -13.916015 40.488285 2.000000 -2.000000 0.000000 -63.310547 -33.623047 -35.308144 -53.217541 -1.882913 -2.145805 -28.970079 38.204159 -71.922928 -2.000000 2.000000 0.000000 58.056641 -3.593750 6.913451 111.316490 -1.142815 -3.104033 -20.766445 -70.334679 6.444791 -35.348289 26.203873 27.814539 22.644840 -4.834547 -2.134577 -4.035916 11.762284 0.320049 -14.997734 -6.950556 -25.164503 3.962137 5.213297 0.002636 6.197539 -13.907488 -7.928958 
0.131841 50.694489 23.984644 15.576175 10.839844 -61.677853 61.350666 -13.176706 -15.748940 -17.773438 9.550781 4.355469 51.063168 8.107644 2.471410 -77.851563 -14.101561 40.632389 2.000000 -2.000000 0.000000 -65.263672 -31.201176 -30.097656 -55.316963 -1.530242 -2.137041 -28.344479 35.781021 -75.049965 -2.000000 2.000000 0.000000 57.685543 -7.382812 7.304688 112.190170 -1.173031 -2.919996 -20.331573 -69.296715 6.380283 -33.209240 24.815502 29.579742 21.932247 -4.867645 -2.256462 -5.431280 11.441478 0.625691 -21.266918 -5.720452 -27.277178 12.789508 5.037503 1.105606 0.405953 -18.826647 -4.173696 
-0.126479 50.702358 25.388762 15.576173 11.005859 -61.990318 60.775364 -12.727708 -16.002911 -17.792969 9.208985 4.111329 51.063168 8.107644 2.471410 -76.777344 -14.326170 40.905792 2.000000 -2.000000 0.000000 -68.896484 -29.658205 -28.457033 -57.250114 -1.284811 -2.122024 -28.111862 34.464577 -74.672195 -2.000000 2.000000 0.000000 57.226563 -11.103515 7.792969 113.075241 -1.033882 -3.127067 -21.364349 -68.215202 7.842645 -31.276371 23.468868 31.059595 20.493898 -4.912220 -1.989460 -5.512549 11.037146 0.817926 -22.906372 -3.092999 -28.634691 13.504395 5.028512 1.163630 -3.276530 -17.747292 -2.769351 
-0.460394 51.214428 26.607035 15.400392 11.005859 -62.361416 60.191772 -12.282039 -16.248423 -17.646484 8.681641 3.673350 51.063168 8.107644 2.471410 -75.537109 -14.570312 41.289063 2.000000 -2.000000 0.000000 -74.306641 -29.003906 -28.852388 -59.009598 -1.229725 -2.183909 -27.222965 34.340717 -71.061241 -2.000000 2.000000 0.000000 56.425781 -14.902343 8.583984 113.948456 -1.230397 -2.942870 -21.959799 -67.348938 8.598382 -29.081734 21.971817 32.663456 18.734148 -4.985389 -1.815915 -5.855533 10.752314 0.481242 -22.526964 0.138088 -29.469749 10.131639 5.124249 0.834248 -5.770103 -13.455512 -2.042154 
-0.909400 51.608341 27.586929 15.039064 11.025392 -62.429771 59.635380 -11.915804 -16.648058 -17.666018 8.164063 3.388672 51.063168 8.107644 2.471410 -74.248047 -14.658202 41.748047 2.000000 -2.000000 0.000000 -78.789063 -28.398438 -29.067148 -59.898315 -1.572079 -2.183493 -26.321037 34.305164 -68.359222 -2.000000 2.000000 0.000000 55.615234 -18.476563 9.801593 115.003365 -1.268830 -2.954871 -22.602720 -66.640770 9.423087 -26.638000 20.469719 34.185925 16.442320 -5.107503 -1.670150 -5.161055 9.889904 0.612722 -21.765156 2.725319 -28.625576 6.786438 5.214539 0.072809 -6.229719 -9.754148 -1.075158 
